<mxfile host="app.diagrams.net" agent="Mozilla/5.0 (X11; Linux x86_64; rv:130.0) Gecko/20100101 Firefox/130.0" version="24.7.17">
  <diagram name="Page-1" id="9mek46iwmusxrbggFIK-">
    <mxGraphModel grid="1" page="1" gridSize="10" guides="1" tooltips="1" connect="1" arrows="1" fold="1" pageScale="1" pageWidth="850" pageHeight="1100" math="0" shadow="0">
      <root>
        <mxCell id="0" />
        <mxCell id="1" parent="0" />
        <mxCell id="RNJAW25XTD9_h1Z6Hwnq-1" value="Library Management System" style="rounded=1;whiteSpace=wrap;html=1;" vertex="1" parent="1">
          <mxGeometry x="383" y="445" width="85" height="50" as="geometry" />
        </mxCell>
        <mxCell id="RNJAW25XTD9_h1Z6Hwnq-29" style="edgeStyle=orthogonalEdgeStyle;rounded=0;orthogonalLoop=1;jettySize=auto;html=1;entryX=0.5;entryY=0;entryDx=0;entryDy=0;" edge="1" parent="1" source="RNJAW25XTD9_h1Z6Hwnq-2" target="RNJAW25XTD9_h1Z6Hwnq-28">
          <mxGeometry relative="1" as="geometry">
            <Array as="points">
              <mxPoint x="255" y="520" />
              <mxPoint x="305" y="520" />
            </Array>
          </mxGeometry>
        </mxCell>
        <mxCell id="RNJAW25XTD9_h1Z6Hwnq-47" style="edgeStyle=orthogonalEdgeStyle;rounded=0;orthogonalLoop=1;jettySize=auto;html=1;entryX=0.5;entryY=0;entryDx=0;entryDy=0;" edge="1" parent="1" source="RNJAW25XTD9_h1Z6Hwnq-2" target="RNJAW25XTD9_h1Z6Hwnq-46">
          <mxGeometry relative="1" as="geometry" />
        </mxCell>
        <mxCell id="RNJAW25XTD9_h1Z6Hwnq-48" value="req" style="edgeLabel;html=1;align=center;verticalAlign=middle;resizable=0;points=[];" connectable="0" vertex="1" parent="RNJAW25XTD9_h1Z6Hwnq-47">
          <mxGeometry x="0.1945" y="2" relative="1" as="geometry">
            <mxPoint y="-2" as="offset" />
          </mxGeometry>
        </mxCell>
        <mxCell id="RNJAW25XTD9_h1Z6Hwnq-81" style="edgeStyle=orthogonalEdgeStyle;rounded=0;orthogonalLoop=1;jettySize=auto;html=1;exitX=0;exitY=0.5;exitDx=0;exitDy=0;entryX=1;entryY=0.5;entryDx=0;entryDy=0;" edge="1" parent="1" source="RNJAW25XTD9_h1Z6Hwnq-2" target="RNJAW25XTD9_h1Z6Hwnq-79">
          <mxGeometry relative="1" as="geometry" />
        </mxCell>
        <mxCell id="RNJAW25XTD9_h1Z6Hwnq-2" value="User" style="rounded=1;whiteSpace=wrap;html=1;" vertex="1" parent="1">
          <mxGeometry x="220" y="460" width="70" height="20" as="geometry" />
        </mxCell>
        <mxCell id="RNJAW25XTD9_h1Z6Hwnq-14" style="edgeStyle=orthogonalEdgeStyle;rounded=0;orthogonalLoop=1;jettySize=auto;html=1;entryX=0.5;entryY=1;entryDx=0;entryDy=0;" edge="1" parent="1" source="RNJAW25XTD9_h1Z6Hwnq-3" target="RNJAW25XTD9_h1Z6Hwnq-2">
          <mxGeometry relative="1" as="geometry">
            <Array as="points">
              <mxPoint x="595" y="520" />
              <mxPoint x="255" y="520" />
            </Array>
          </mxGeometry>
        </mxCell>
        <mxCell id="RNJAW25XTD9_h1Z6Hwnq-15" value="Library Card" style="edgeLabel;html=1;align=center;verticalAlign=middle;resizable=0;points=[];" connectable="0" vertex="1" parent="RNJAW25XTD9_h1Z6Hwnq-14">
          <mxGeometry x="0.0295" relative="1" as="geometry">
            <mxPoint as="offset" />
          </mxGeometry>
        </mxCell>
        <mxCell id="RNJAW25XTD9_h1Z6Hwnq-49" value="req" style="edgeLabel;html=1;align=center;verticalAlign=middle;resizable=0;points=[];" connectable="0" vertex="1" parent="RNJAW25XTD9_h1Z6Hwnq-14">
          <mxGeometry x="0.7074" y="-1" relative="1" as="geometry">
            <mxPoint as="offset" />
          </mxGeometry>
        </mxCell>
        <mxCell id="RNJAW25XTD9_h1Z6Hwnq-3" value="Librarian" style="rounded=1;whiteSpace=wrap;html=1;" vertex="1" parent="1">
          <mxGeometry x="560" y="460" width="70" height="20" as="geometry" />
        </mxCell>
        <mxCell id="RNJAW25XTD9_h1Z6Hwnq-20" style="edgeStyle=orthogonalEdgeStyle;rounded=0;orthogonalLoop=1;jettySize=auto;html=1;entryX=0.5;entryY=0;entryDx=0;entryDy=0;" edge="1" parent="1" source="RNJAW25XTD9_h1Z6Hwnq-10" target="RNJAW25XTD9_h1Z6Hwnq-2">
          <mxGeometry relative="1" as="geometry">
            <Array as="points">
              <mxPoint x="255" y="390" />
            </Array>
          </mxGeometry>
        </mxCell>
        <mxCell id="RNJAW25XTD9_h1Z6Hwnq-22" value="registration form" style="edgeLabel;html=1;align=center;verticalAlign=middle;resizable=0;points=[];" connectable="0" vertex="1" parent="RNJAW25XTD9_h1Z6Hwnq-20">
          <mxGeometry x="0.2188" y="2" relative="1" as="geometry">
            <mxPoint as="offset" />
          </mxGeometry>
        </mxCell>
        <mxCell id="RNJAW25XTD9_h1Z6Hwnq-21" style="edgeStyle=orthogonalEdgeStyle;rounded=0;orthogonalLoop=1;jettySize=auto;html=1;entryX=0.5;entryY=0;entryDx=0;entryDy=0;" edge="1" parent="1" source="RNJAW25XTD9_h1Z6Hwnq-10" target="RNJAW25XTD9_h1Z6Hwnq-3">
          <mxGeometry relative="1" as="geometry">
            <Array as="points">
              <mxPoint x="595" y="390" />
            </Array>
          </mxGeometry>
        </mxCell>
        <mxCell id="RNJAW25XTD9_h1Z6Hwnq-23" value="registration form" style="edgeLabel;html=1;align=center;verticalAlign=middle;resizable=0;points=[];" connectable="0" vertex="1" parent="RNJAW25XTD9_h1Z6Hwnq-21">
          <mxGeometry x="0.7493" y="1" relative="1" as="geometry">
            <mxPoint as="offset" />
          </mxGeometry>
        </mxCell>
        <mxCell id="RNJAW25XTD9_h1Z6Hwnq-26" style="edgeStyle=orthogonalEdgeStyle;rounded=0;orthogonalLoop=1;jettySize=auto;html=1;exitX=0.5;exitY=0;exitDx=0;exitDy=0;entryX=0.7;entryY=-0.036;entryDx=0;entryDy=0;entryPerimeter=0;" edge="1" parent="1" source="RNJAW25XTD9_h1Z6Hwnq-10" target="RNJAW25XTD9_h1Z6Hwnq-3">
          <mxGeometry relative="1" as="geometry" />
        </mxCell>
        <mxCell id="RNJAW25XTD9_h1Z6Hwnq-27" value="Store user information" style="edgeLabel;html=1;align=center;verticalAlign=middle;resizable=0;points=[];" connectable="0" vertex="1" parent="RNJAW25XTD9_h1Z6Hwnq-26">
          <mxGeometry x="-0.3921" y="-1" relative="1" as="geometry">
            <mxPoint as="offset" />
          </mxGeometry>
        </mxCell>
        <mxCell id="RNJAW25XTD9_h1Z6Hwnq-10" value="Registration" style="ellipse;whiteSpace=wrap;html=1;" vertex="1" parent="1">
          <mxGeometry x="383" y="350" width="80" height="50" as="geometry" />
        </mxCell>
        <mxCell id="RNJAW25XTD9_h1Z6Hwnq-11" style="edgeStyle=orthogonalEdgeStyle;rounded=0;orthogonalLoop=1;jettySize=auto;html=1;entryX=1.013;entryY=0.448;entryDx=0;entryDy=0;entryPerimeter=0;" edge="1" parent="1" source="RNJAW25XTD9_h1Z6Hwnq-3" target="RNJAW25XTD9_h1Z6Hwnq-10">
          <mxGeometry relative="1" as="geometry" />
        </mxCell>
        <mxCell id="RNJAW25XTD9_h1Z6Hwnq-18" value="req" style="edgeLabel;html=1;align=center;verticalAlign=middle;resizable=0;points=[];" connectable="0" vertex="1" parent="RNJAW25XTD9_h1Z6Hwnq-11">
          <mxGeometry x="-0.0403" y="-2" relative="1" as="geometry">
            <mxPoint x="-4" as="offset" />
          </mxGeometry>
        </mxCell>
        <mxCell id="RNJAW25XTD9_h1Z6Hwnq-12" style="edgeStyle=orthogonalEdgeStyle;rounded=0;orthogonalLoop=1;jettySize=auto;html=1;entryX=0.013;entryY=0.456;entryDx=0;entryDy=0;entryPerimeter=0;" edge="1" parent="1" source="RNJAW25XTD9_h1Z6Hwnq-2" target="RNJAW25XTD9_h1Z6Hwnq-10">
          <mxGeometry relative="1" as="geometry" />
        </mxCell>
        <mxCell id="RNJAW25XTD9_h1Z6Hwnq-16" value="req" style="edgeLabel;html=1;align=center;verticalAlign=middle;resizable=0;points=[];" connectable="0" vertex="1" parent="RNJAW25XTD9_h1Z6Hwnq-12">
          <mxGeometry x="-0.0199" relative="1" as="geometry">
            <mxPoint as="offset" />
          </mxGeometry>
        </mxCell>
        <mxCell id="RNJAW25XTD9_h1Z6Hwnq-13" style="edgeStyle=orthogonalEdgeStyle;rounded=0;orthogonalLoop=1;jettySize=auto;html=1;entryX=0.464;entryY=0.012;entryDx=0;entryDy=0;entryPerimeter=0;" edge="1" parent="1" source="RNJAW25XTD9_h1Z6Hwnq-10" target="RNJAW25XTD9_h1Z6Hwnq-1">
          <mxGeometry relative="1" as="geometry" />
        </mxCell>
        <mxCell id="RNJAW25XTD9_h1Z6Hwnq-50" style="edgeStyle=orthogonalEdgeStyle;rounded=0;orthogonalLoop=1;jettySize=auto;html=1;entryX=0;entryY=0;entryDx=0;entryDy=0;exitX=0;exitY=0;exitDx=0;exitDy=0;" edge="1" parent="1" source="RNJAW25XTD9_h1Z6Hwnq-3" target="RNJAW25XTD9_h1Z6Hwnq-2">
          <mxGeometry relative="1" as="geometry">
            <Array as="points">
              <mxPoint x="560" y="300" />
              <mxPoint x="220" y="300" />
            </Array>
          </mxGeometry>
        </mxCell>
        <mxCell id="RNJAW25XTD9_h1Z6Hwnq-51" value="res" style="edgeLabel;html=1;align=center;verticalAlign=middle;resizable=0;points=[];" connectable="0" vertex="1" parent="RNJAW25XTD9_h1Z6Hwnq-50">
          <mxGeometry x="0.4118" relative="1" as="geometry">
            <mxPoint x="15" as="offset" />
          </mxGeometry>
        </mxCell>
        <mxCell id="RNJAW25XTD9_h1Z6Hwnq-66" style="edgeStyle=orthogonalEdgeStyle;rounded=0;orthogonalLoop=1;jettySize=auto;html=1;exitX=1;exitY=1;exitDx=0;exitDy=-15;exitPerimeter=0;entryX=0.5;entryY=0;entryDx=0;entryDy=0;" edge="1" parent="1" source="RNJAW25XTD9_h1Z6Hwnq-19" target="RNJAW25XTD9_h1Z6Hwnq-63">
          <mxGeometry relative="1" as="geometry">
            <Array as="points">
              <mxPoint x="690" y="400" />
              <mxPoint x="690" y="680" />
              <mxPoint x="423" y="680" />
            </Array>
          </mxGeometry>
        </mxCell>
        <mxCell id="RNJAW25XTD9_h1Z6Hwnq-67" value="res" style="edgeLabel;html=1;align=center;verticalAlign=middle;resizable=0;points=[];" connectable="0" vertex="1" parent="RNJAW25XTD9_h1Z6Hwnq-66">
          <mxGeometry x="0.3981" relative="1" as="geometry">
            <mxPoint as="offset" />
          </mxGeometry>
        </mxCell>
        <mxCell id="RNJAW25XTD9_h1Z6Hwnq-86" style="edgeStyle=orthogonalEdgeStyle;rounded=0;orthogonalLoop=1;jettySize=auto;html=1;exitX=1;exitY=0;exitDx=0;exitDy=27.5;exitPerimeter=0;entryX=0.25;entryY=1;entryDx=0;entryDy=0;" edge="1" parent="1" source="RNJAW25XTD9_h1Z6Hwnq-19" target="RNJAW25XTD9_h1Z6Hwnq-3">
          <mxGeometry relative="1" as="geometry" />
        </mxCell>
        <mxCell id="RNJAW25XTD9_h1Z6Hwnq-87" value="res" style="edgeLabel;html=1;align=center;verticalAlign=middle;resizable=0;points=[];" connectable="0" vertex="1" parent="RNJAW25XTD9_h1Z6Hwnq-86">
          <mxGeometry x="0.2273" y="1" relative="1" as="geometry">
            <mxPoint as="offset" />
          </mxGeometry>
        </mxCell>
        <mxCell id="RNJAW25XTD9_h1Z6Hwnq-19" value="Database" style="shape=cylinder3;whiteSpace=wrap;html=1;boundedLbl=1;backgroundOutline=1;size=15;" vertex="1" parent="1">
          <mxGeometry x="610" y="335" width="60" height="80" as="geometry" />
        </mxCell>
        <mxCell id="RNJAW25XTD9_h1Z6Hwnq-24" style="edgeStyle=orthogonalEdgeStyle;rounded=0;orthogonalLoop=1;jettySize=auto;html=1;entryX=1;entryY=0;entryDx=0;entryDy=0;" edge="1" parent="1" source="RNJAW25XTD9_h1Z6Hwnq-2" target="RNJAW25XTD9_h1Z6Hwnq-3">
          <mxGeometry relative="1" as="geometry">
            <Array as="points">
              <mxPoint x="255" y="315" />
              <mxPoint x="630" y="315" />
            </Array>
          </mxGeometry>
        </mxCell>
        <mxCell id="RNJAW25XTD9_h1Z6Hwnq-25" value="Store Form Response" style="edgeLabel;html=1;align=center;verticalAlign=middle;resizable=0;points=[];" connectable="0" vertex="1" parent="RNJAW25XTD9_h1Z6Hwnq-24">
          <mxGeometry x="0.152" y="1" relative="1" as="geometry">
            <mxPoint as="offset" />
          </mxGeometry>
        </mxCell>
        <mxCell id="RNJAW25XTD9_h1Z6Hwnq-28" value="Book" style="rounded=1;whiteSpace=wrap;html=1;" vertex="1" parent="1">
          <mxGeometry x="270" y="580" width="70" height="30" as="geometry" />
        </mxCell>
        <mxCell id="RNJAW25XTD9_h1Z6Hwnq-35" style="edgeStyle=orthogonalEdgeStyle;rounded=0;orthogonalLoop=1;jettySize=auto;html=1;entryX=0.5;entryY=1;entryDx=0;entryDy=0;" edge="1" parent="1" source="RNJAW25XTD9_h1Z6Hwnq-30" target="RNJAW25XTD9_h1Z6Hwnq-28">
          <mxGeometry relative="1" as="geometry" />
        </mxCell>
        <mxCell id="RNJAW25XTD9_h1Z6Hwnq-36" value="no; not available" style="edgeLabel;html=1;align=center;verticalAlign=middle;resizable=0;points=[];" connectable="0" vertex="1" parent="RNJAW25XTD9_h1Z6Hwnq-35">
          <mxGeometry x="0.3844" y="1" relative="1" as="geometry">
            <mxPoint x="20" y="9" as="offset" />
          </mxGeometry>
        </mxCell>
        <mxCell id="RNJAW25XTD9_h1Z6Hwnq-38" style="edgeStyle=orthogonalEdgeStyle;rounded=0;orthogonalLoop=1;jettySize=auto;html=1;entryX=0;entryY=0.5;entryDx=0;entryDy=0;" edge="1" parent="1" source="RNJAW25XTD9_h1Z6Hwnq-30" target="RNJAW25XTD9_h1Z6Hwnq-37">
          <mxGeometry relative="1" as="geometry" />
        </mxCell>
        <mxCell id="RNJAW25XTD9_h1Z6Hwnq-39" value="yes" style="edgeLabel;html=1;align=center;verticalAlign=middle;resizable=0;points=[];" connectable="0" vertex="1" parent="RNJAW25XTD9_h1Z6Hwnq-38">
          <mxGeometry x="-0.3781" y="1" relative="1" as="geometry">
            <mxPoint as="offset" />
          </mxGeometry>
        </mxCell>
        <mxCell id="RNJAW25XTD9_h1Z6Hwnq-30" value="available?" style="rhombus;whiteSpace=wrap;html=1;" vertex="1" parent="1">
          <mxGeometry x="385" y="550" width="80" height="80" as="geometry" />
        </mxCell>
        <mxCell id="RNJAW25XTD9_h1Z6Hwnq-44" style="edgeStyle=orthogonalEdgeStyle;rounded=0;orthogonalLoop=1;jettySize=auto;html=1;" edge="1" parent="1" source="RNJAW25XTD9_h1Z6Hwnq-37">
          <mxGeometry relative="1" as="geometry">
            <mxPoint x="640" y="560" as="targetPoint" />
          </mxGeometry>
        </mxCell>
        <mxCell id="RNJAW25XTD9_h1Z6Hwnq-37" value="&lt;div&gt;Reservation&lt;/div&gt;&lt;div&gt;Period&lt;br&gt;&lt;/div&gt;" style="rounded=1;whiteSpace=wrap;html=1;" vertex="1" parent="1">
          <mxGeometry x="580" y="620" width="70" height="40" as="geometry" />
        </mxCell>
        <mxCell id="RNJAW25XTD9_h1Z6Hwnq-40" value="Local Storage" style="shape=cylinder3;whiteSpace=wrap;html=1;boundedLbl=1;backgroundOutline=1;size=15;" vertex="1" parent="1">
          <mxGeometry x="560" y="530" width="50" height="70" as="geometry" />
        </mxCell>
        <mxCell id="RNJAW25XTD9_h1Z6Hwnq-41" style="edgeStyle=orthogonalEdgeStyle;rounded=0;orthogonalLoop=1;jettySize=auto;html=1;entryX=0;entryY=0;entryDx=0;entryDy=25;entryPerimeter=0;" edge="1" parent="1" source="RNJAW25XTD9_h1Z6Hwnq-30" target="RNJAW25XTD9_h1Z6Hwnq-40">
          <mxGeometry relative="1" as="geometry" />
        </mxCell>
        <mxCell id="RNJAW25XTD9_h1Z6Hwnq-42" value="store" style="edgeLabel;html=1;align=center;verticalAlign=middle;resizable=0;points=[];" connectable="0" vertex="1" parent="RNJAW25XTD9_h1Z6Hwnq-41">
          <mxGeometry x="0.3292" y="-1" relative="1" as="geometry">
            <mxPoint as="offset" />
          </mxGeometry>
        </mxCell>
        <mxCell id="RNJAW25XTD9_h1Z6Hwnq-43" style="edgeStyle=orthogonalEdgeStyle;rounded=0;orthogonalLoop=1;jettySize=auto;html=1;entryX=0.75;entryY=1;entryDx=0;entryDy=0;" edge="1" parent="1" source="RNJAW25XTD9_h1Z6Hwnq-40" target="RNJAW25XTD9_h1Z6Hwnq-3">
          <mxGeometry relative="1" as="geometry">
            <Array as="points">
              <mxPoint x="640" y="565" />
              <mxPoint x="640" y="480" />
            </Array>
          </mxGeometry>
        </mxCell>
        <mxCell id="RNJAW25XTD9_h1Z6Hwnq-45" value="store the response" style="edgeLabel;html=1;align=center;verticalAlign=middle;resizable=0;points=[];" connectable="0" vertex="1" parent="RNJAW25XTD9_h1Z6Hwnq-43">
          <mxGeometry x="-0.4956" y="-2" relative="1" as="geometry">
            <mxPoint x="8" y="-40" as="offset" />
          </mxGeometry>
        </mxCell>
        <mxCell id="RNJAW25XTD9_h1Z6Hwnq-64" style="edgeStyle=orthogonalEdgeStyle;rounded=0;orthogonalLoop=1;jettySize=auto;html=1;entryX=0;entryY=0.5;entryDx=0;entryDy=0;" edge="1" parent="1" source="RNJAW25XTD9_h1Z6Hwnq-46" target="RNJAW25XTD9_h1Z6Hwnq-63">
          <mxGeometry relative="1" as="geometry">
            <Array as="points">
              <mxPoint x="188" y="745" />
            </Array>
          </mxGeometry>
        </mxCell>
        <mxCell id="RNJAW25XTD9_h1Z6Hwnq-46" value="Reniew" style="rounded=1;whiteSpace=wrap;html=1;" vertex="1" parent="1">
          <mxGeometry x="140" y="580" width="95" height="30" as="geometry" />
        </mxCell>
        <mxCell id="RNJAW25XTD9_h1Z6Hwnq-54" style="edgeStyle=orthogonalEdgeStyle;rounded=0;orthogonalLoop=1;jettySize=auto;html=1;entryX=1;entryY=0.25;entryDx=0;entryDy=0;" edge="1" parent="1" source="RNJAW25XTD9_h1Z6Hwnq-37" target="RNJAW25XTD9_h1Z6Hwnq-3">
          <mxGeometry relative="1" as="geometry">
            <Array as="points">
              <mxPoint x="690" y="640" />
              <mxPoint x="690" y="465" />
            </Array>
          </mxGeometry>
        </mxCell>
        <mxCell id="RNJAW25XTD9_h1Z6Hwnq-55" value="&lt;div&gt;update&lt;/div&gt;&lt;div&gt;reservation&lt;/div&gt;&lt;div&gt;period&lt;br&gt;&lt;/div&gt;" style="edgeLabel;html=1;align=center;verticalAlign=middle;resizable=0;points=[];" connectable="0" vertex="1" parent="RNJAW25XTD9_h1Z6Hwnq-54">
          <mxGeometry x="-0.4257" relative="1" as="geometry">
            <mxPoint as="offset" />
          </mxGeometry>
        </mxCell>
        <mxCell id="RNJAW25XTD9_h1Z6Hwnq-71" style="edgeStyle=orthogonalEdgeStyle;rounded=0;orthogonalLoop=1;jettySize=auto;html=1;exitX=0.5;exitY=1;exitDx=0;exitDy=0;entryX=0.5;entryY=0;entryDx=0;entryDy=0;" edge="1" parent="1" source="RNJAW25XTD9_h1Z6Hwnq-63" target="RNJAW25XTD9_h1Z6Hwnq-70">
          <mxGeometry relative="1" as="geometry" />
        </mxCell>
        <mxCell id="RNJAW25XTD9_h1Z6Hwnq-63" value="Charge" style="rounded=1;whiteSpace=wrap;html=1;" vertex="1" parent="1">
          <mxGeometry x="379.5" y="730" width="87" height="30" as="geometry" />
        </mxCell>
        <mxCell id="RNJAW25XTD9_h1Z6Hwnq-65" style="edgeStyle=orthogonalEdgeStyle;rounded=0;orthogonalLoop=1;jettySize=auto;html=1;entryX=1;entryY=0.5;entryDx=0;entryDy=0;" edge="1" parent="1" source="RNJAW25XTD9_h1Z6Hwnq-63" target="RNJAW25XTD9_h1Z6Hwnq-3">
          <mxGeometry relative="1" as="geometry">
            <Array as="points">
              <mxPoint x="650" y="745" />
              <mxPoint x="650" y="470" />
            </Array>
          </mxGeometry>
        </mxCell>
        <mxCell id="RNJAW25XTD9_h1Z6Hwnq-69" value="req" style="edgeLabel;html=1;align=center;verticalAlign=middle;resizable=0;points=[];" connectable="0" vertex="1" parent="RNJAW25XTD9_h1Z6Hwnq-65">
          <mxGeometry x="-0.4743" y="-1" relative="1" as="geometry">
            <mxPoint as="offset" />
          </mxGeometry>
        </mxCell>
        <mxCell id="RNJAW25XTD9_h1Z6Hwnq-72" style="edgeStyle=orthogonalEdgeStyle;rounded=0;orthogonalLoop=1;jettySize=auto;html=1;entryX=0.75;entryY=1;entryDx=0;entryDy=0;" edge="1" parent="1" source="RNJAW25XTD9_h1Z6Hwnq-70" target="RNJAW25XTD9_h1Z6Hwnq-37">
          <mxGeometry relative="1" as="geometry" />
        </mxCell>
        <mxCell id="RNJAW25XTD9_h1Z6Hwnq-73" value="yes" style="edgeLabel;html=1;align=center;verticalAlign=middle;resizable=0;points=[];" connectable="0" vertex="1" parent="RNJAW25XTD9_h1Z6Hwnq-72">
          <mxGeometry x="-0.7137" relative="1" as="geometry">
            <mxPoint as="offset" />
          </mxGeometry>
        </mxCell>
        <mxCell id="RNJAW25XTD9_h1Z6Hwnq-77" style="edgeStyle=orthogonalEdgeStyle;rounded=0;orthogonalLoop=1;jettySize=auto;html=1;exitX=0;exitY=0.5;exitDx=0;exitDy=0;" edge="1" parent="1" source="RNJAW25XTD9_h1Z6Hwnq-70" target="RNJAW25XTD9_h1Z6Hwnq-46">
          <mxGeometry relative="1" as="geometry" />
        </mxCell>
        <mxCell id="RNJAW25XTD9_h1Z6Hwnq-78" value="no" style="edgeLabel;html=1;align=center;verticalAlign=middle;resizable=0;points=[];" connectable="0" vertex="1" parent="RNJAW25XTD9_h1Z6Hwnq-77">
          <mxGeometry x="-0.4419" y="-2" relative="1" as="geometry">
            <mxPoint x="59" y="2" as="offset" />
          </mxGeometry>
        </mxCell>
        <mxCell id="RNJAW25XTD9_h1Z6Hwnq-70" value="&lt;div&gt;Charge&lt;/div&gt;&lt;div&gt;Checker&lt;br&gt;&lt;/div&gt;" style="rhombus;whiteSpace=wrap;html=1;" vertex="1" parent="1">
          <mxGeometry x="385" y="780" width="80" height="80" as="geometry" />
        </mxCell>
        <mxCell id="RNJAW25XTD9_h1Z6Hwnq-79" value="&lt;div&gt;Feedback&lt;/div&gt;&lt;div&gt;Form&lt;br&gt;&lt;/div&gt;" style="rounded=1;whiteSpace=wrap;html=1;" vertex="1" parent="1">
          <mxGeometry x="90" y="451.25" width="70" height="37.5" as="geometry" />
        </mxCell>
        <mxCell id="RNJAW25XTD9_h1Z6Hwnq-82" style="edgeStyle=orthogonalEdgeStyle;rounded=0;orthogonalLoop=1;jettySize=auto;html=1;entryX=0.25;entryY=0;entryDx=0;entryDy=0;" edge="1" parent="1" source="RNJAW25XTD9_h1Z6Hwnq-79" target="RNJAW25XTD9_h1Z6Hwnq-3">
          <mxGeometry relative="1" as="geometry">
            <Array as="points">
              <mxPoint x="125" y="280" />
              <mxPoint x="578" y="280" />
              <mxPoint x="578" y="339" />
            </Array>
          </mxGeometry>
        </mxCell>
        <mxCell id="RNJAW25XTD9_h1Z6Hwnq-83" value="store" style="edgeLabel;html=1;align=center;verticalAlign=middle;resizable=0;points=[];" connectable="0" vertex="1" parent="RNJAW25XTD9_h1Z6Hwnq-82">
          <mxGeometry x="-0.7452" y="2" relative="1" as="geometry">
            <mxPoint as="offset" />
          </mxGeometry>
        </mxCell>
        <mxCell id="RNJAW25XTD9_h1Z6Hwnq-84" style="edgeStyle=orthogonalEdgeStyle;rounded=0;orthogonalLoop=1;jettySize=auto;html=1;entryX=1;entryY=0.563;entryDx=0;entryDy=0;entryPerimeter=0;" edge="1" parent="1" source="RNJAW25XTD9_h1Z6Hwnq-3" target="RNJAW25XTD9_h1Z6Hwnq-19">
          <mxGeometry relative="1" as="geometry" />
        </mxCell>
        <mxCell id="RNJAW25XTD9_h1Z6Hwnq-85" value="store" style="edgeLabel;html=1;align=center;verticalAlign=middle;resizable=0;points=[];" connectable="0" vertex="1" parent="RNJAW25XTD9_h1Z6Hwnq-84">
          <mxGeometry x="0.3686" y="-1" relative="1" as="geometry">
            <mxPoint as="offset" />
          </mxGeometry>
        </mxCell>
      </root>
    </mxGraphModel>
  </diagram>
</mxfile>
